PathFileType   4   (X/Y/Z)
DataRate	CameraRate	NumFrames	NumMarkers	Units	OrigDataRate	OrigDataStartFrame	OrigNumFrames
120.0	120.0	12	37	mm	120.0	69	110
Frame#	Time	midhip	hip_r	hip_l	knee_r	knee_l	ankle_r	ankle_l	midasis	asis_r	asis_l	psis_r	psis_l	epicondLat_r	epicondLat_l	epicondMed_r	epicondMed_l	malleolusLat_r	malleolusLat_l	malleolusMedv_r	malleolusMedv_l	neck	subclavicle_r	subclavicle_l	sternalnotch	xyphoidprocess	thighwand_r	thighwand_l	upperleg1_r	upperleg1_l	upperleg2_r	upperleg2_l	shankwand_r	shankwand_l	lowerleg1_r	lowerleg1_l	toe_r	toe_l
 	 	X1	Y1	Z1	X2	Y2	Z2	X3	Y3	Z3	X4	Y4	Z4	X5	Y5	Z5	X6	Y6	Z6	X7	Y7	Z7	X8	Y8	Z8	X9	Y9	Z9	X10	Y10	Z10	X11	Y11	Z11	X12	Y12	Z12	X13	Y13	Z13	X14	Y14	Z14	X15	Y15	Z15	X16	Y16	Z16	X17	Y17	Z17	X18	Y18	Z18	X19	Y19	Z19	X20	Y20	Z20	X21	Y21	Z21	X22	Y22	Z22	X23	Y23	Z23	X24	Y24	Z24	X25	Y25	Z25	X26	Y26	Z26	X27	Y27	Z27	X28	Y28	Z28	X29	Y29	Z29	X30	Y30	Z30	X31	Y31	Z31	X32	Y32	Z32	X33	Y33	Z33	X34	Y34	Z34	X35	Y35	Z35	X36	Y36	Z36	X37	Y37	Z37

	69	0.70000	694.661	829.421	-252.605	693.281	809.853	-188.234	694.689	811.113	-305.690	734.030	433.404	-169.858	806.428	466.468	-291.258	431.748	187.487	-159.029	756.259	66.168	-289.625	750.590	892.518	-239.444	740.971	890.003	-139.559	760.210	895.034	-339.330	589.906	914.853	-230.829	595.390	917.065	-285.627	736.245	436.323	-114.980	824.294	470.110	-342.617	743.634	427.754	-230.885	807.249	447.159	-253.883	425.945	196.252	-121.992	765.979	64.798	-326.852	455.174	180.908	-187.023	776.063	76.420	-262.253	651.118	1333.349	-223.257	754.095	1253.731	-188.560	739.673	1256.307	-295.746	732.014	1266.756	-244.997	777.448	1097.576	-254.219	861.484	620.638	-162.183	879.963	662.622	-258.801	777.178	658.185	-124.531	815.651	681.953	-335.103	779.730	572.504	-126.287	844.894	599.420	-326.070	516.508	277.835	-56.697	755.360	181.247	-396.663	523.696	279.278	-98.572	763.131	187.114	-354.633	488.799	92.408	-117.464	884.684	38.143	-297.260
	70	0.70833	704.408	831.375	-253.019	702.878	812.027	-188.755	704.481	813.024	-306.212	753.158	436.897	-170.944	809.705	466.326	-291.622	456.632	185.071	-158.077	756.073	66.342	-289.626	760.457	894.450	-240.054	750.672	892.177	-140.218	770.242	896.722	-339.890	599.954	917.081	-231.192	605.405	919.264	-285.987	756.005	439.883	-116.099	827.838	469.671	-342.908	763.009	431.601	-232.575	809.899	446.917	-254.585	450.532	194.140	-121.162	765.904	64.838	-326.819	480.185	178.434	-186.055	776.037	76.402	-262.190	661.639	1335.416	-223.247	764.116	1255.652	-187.922	750.437	1258.339	-295.231	742.485	1268.705	-244.563	787.618	1099.502	-253.553	876.216	626.857	-164.865	886.295	661.090	-258.857	791.298	662.709	-125.768	822.688	681.730	-335.138	796.389	576.785	-127.932	850.470	598.715	-326.188	539.180	278.425	-56.675	756.507	181.232	-396.833	546.489	279.385	-98.677	764.246	187.021	-354.735	516.501	92.933	-114.840	884.656	38.166	-297.259
	71	0.71667	714.055	833.244	-253.402	712.342	814.173	-189.237	714.163	814.858	-306.693	772.036	440.474	-172.005	812.786	466.196	-291.927	482.216	181.799	-157.012	755.957	66.525	-289.586	770.217	896.320	-240.645	760.248	894.334	-140.878	780.185	898.306	-340.412	609.941	919.290	-231.514	615.340	921.392	-286.301	775.477	443.551	-117.199	831.125	469.213	-343.160	781.659	435.684	-234.163	812.281	446.615	-255.396	475.834	191.083	-120.198	765.810	64.906	-326.768	505.771	175.270	-185.028	776.054	76.364	-262.083	672.093	1337.343	-223.222	774.169	1257.534	-187.355	761.215	1260.242	-294.739	752.996	1270.595	-244.106	797.958	1101.366	-252.833	890.614	633.108	-167.420	892.447	659.464	-259.030	805.042	667.146	-126.814	829.582	681.369	-335.332	812.483	581.291	-129.403	855.867	597.819	-326.443	562.306	278.219	-56.525	757.396	181.235	-396.890	569.655	278.838	-98.596	764.847	186.937	-354.580	545.135	92.767	-112.486	884.634	38.199	-297.240
	72	0.72500	723.660	835.056	-253.680	721.688	816.239	-189.691	723.745	816.579	-307.144	790.652	444.071	-173.001	815.735	466.077	-292.171	508.431	177.799	-155.844	755.904	66.709	-289.506	779.871	898.092	-241.220	769.705	896.421	-141.535	790.037	899.762	-340.905	619.855	921.417	-231.780	625.193	923.405	-286.548	794.647	447.267	-118.240	834.200	468.736	-343.378	798.650	439.251	-234.180	814.777	446.266	-256.011	501.817	187.176	-119.094	765.707	64.992	-326.697	531.971	171.498	-183.895	776.200	76.317	-261.929	682.530	1339.192	-223.180	784.143	1259.282	-186.820	772.182	1262.094	-294.129	763.504	1272.377	-243.642	808.388	1103.148	-252.130	904.672	639.309	-169.840	898.498	657.758	-259.351	818.766	671.381	-127.974	836.219	680.795	-335.576	827.888	586.016	-130.354	861.069	596.822	-326.742	585.915	277.189	-56.206	758.080	181.250	-396.857	593.252	277.647	-98.361	765.088	186.925	-354.292	574.595	91.966	-110.443	884.617	38.241	-297.207
	73	0.73333	733.299	836.863	-253.776	730.944	818.184	-190.120	733.236	818.151	-307.569	808.963	447.640	-173.894	818.618	465.969	-292.349	535.223	173.180	-154.592	755.892	66.888	-289.395	789.427	899.735	-241.788	779.066	898.402	-142.191	799.787	901.068	-341.386	629.686	923.401	-231.969	634.959	925.259	-286.711	813.489	450.988	-119.183	837.122	468.242	-343.561	815.929	442.619	-234.219	815.119	446.552	-255.637	528.452	182.517	-117.860	765.604	65.086	-326.606	558.765	167.231	-182.691	776.471	76.263	-261.753	692.982	1340.937	-223.148	794.089	1260.805	-186.287	783.412	1263.944	-293.418	773.865	1273.998	-243.163	818.971	1104.843	-251.633	918.381	645.388	-172.149	904.537	655.987	-259.822	832.366	675.480	-129.309	842.718	680.121	-335.851	843.247	590.611	-131.410	865.255	595.712	-326.890	610.018	275.351	-55.694	758.658	181.271	-396.765	617.250	275.781	-97.912	765.316	186.942	-354.028	604.787	90.603	-108.727	884.598	38.290	-297.163
	74	0.74167	742.781	838.400	-253.739	740.151	819.976	-190.516	742.637	819.545	-307.961	826.918	451.141	-174.647	821.502	465.863	-292.458	562.549	168.041	-153.279	755.899	67.057	-289.261	798.895	901.227	-242.360	788.373	900.251	-142.842	809.417	902.202	-341.878	639.437	925.198	-232.061	644.636	926.914	-286.774	831.966	454.680	-119.994	839.957	467.732	-343.704	834.268	445.780	-234.491	813.361	447.461	-254.705	555.709	177.203	-116.516	765.514	65.177	-326.494	586.016	162.572	-181.536	776.658	76.204	-261.585	703.434	1342.464	-223.090	804.085	1262.126	-185.785	794.859	1265.746	-292.740	784.143	1275.442	-242.671	829.869	1106.463	-251.363	931.731	651.280	-174.373	910.632	654.162	-260.420	845.666	679.383	-130.787	849.080	679.474	-336.226	858.749	595.020	-132.635	868.499	594.312	-327.047	634.599	272.757	-54.982	759.229	181.290	-396.647	641.653	273.193	-97.261	765.719	186.956	-353.862	635.624	88.766	-107.337	884.568	38.342	-297.113
	75	0.75000	752.051	839.551	-253.650	749.357	821.593	-190.864	751.952	820.734	-308.304	844.465	454.540	-175.229	824.439	465.744	-292.502	590.379	162.461	-151.927	755.912	67.214	-289.112	808.297	902.550	-242.945	797.686	901.952	-143.488	818.908	903.147	-342.402	649.115	926.773	-232.040	654.227	928.337	-286.735	850.040	458.310	-120.642	842.763	467.201	-343.809	852.847	448.780	-234.348	813.638	448.047	-254.210	583.557	171.335	-115.090	765.447	65.257	-326.361	613.778	157.643	-180.411	776.708	76.163	-261.415	713.871	1343.830	-222.975	814.122	1263.293	-185.291	805.034	1267.064	-292.274	794.350	1276.687	-242.164	839.556	1107.636	-251.031	944.716	656.917	-176.519	916.829	652.295	-261.108	858.719	683.308	-132.270	855.442	678.750	-336.727	874.216	599.333	-133.743	872.487	592.966	-327.397	659.618	269.496	-54.082	759.862	181.301	-396.525	666.446	269.966	-96.325	766.364	186.958	-353.810	667.032	86.550	-106.256	884.520	38.390	-297.064
	76	0.75833	761.207	840.388	-253.486	758.625	823.018	-191.149	761.207	821.702	-308.585	861.566	457.805	-175.615	827.460	465.592	-292.496	618.692	156.511	-150.554	755.933	67.355	-288.947	817.670	903.692	-243.548	807.074	903.492	-144.127	828.267	903.891	-342.969	658.739	928.103	-231.904	663.741	929.510	-286.602	867.671	461.844	-121.105	845.589	466.643	-343.882	867.070	452.292	-234.717	816.114	448.324	-253.820	611.961	165.010	-113.612	765.408	65.321	-326.207	642.172	152.507	-179.200	776.613	76.143	-261.228	724.337	1345.007	-222.826	824.215	1264.295	-184.733	812.523	1267.498	-292.072	804.532	1277.722	-241.656	846.554	1108.000	-250.341	957.344	662.231	-178.568	923.141	650.389	-261.846	871.537	687.286	-133.476	861.827	677.963	-337.165	887.944	603.334	-134.848	877.255	591.928	-327.759	685.002	265.690	-53.026	760.583	181.304	-396.410	691.547	266.256	-95.127	767.265	186.965	-353.828	698.946	84.055	-105.452	884.450	38.429	-297.020
	77	0.76667	770.424	841.080	-253.189	768.016	824.235	-191.369	770.444	822.441	-308.802	878.198	460.894	-175.793	830.578	465.387	-292.460	647.484	150.250	-149.177	755.977	67.474	-288.767	827.061	904.647	-244.171	816.595	904.859	-144.759	837.526	904.435	-343.583	668.332	929.170	-231.665	673.194	930.423	-286.394	884.826	465.238	-121.367	848.467	466.044	-343.936	873.367	456.841	-236.820	818.860	448.530	-253.283	640.882	158.329	-112.118	765.399	65.361	-326.036	671.013	147.166	-177.996	776.337	76.092	-261.033	734.900	1345.941	-222.708	834.302	1265.114	-184.115	823.395	1268.323	-291.463	814.699	1278.525	-241.152	856.862	1108.775	-249.511	969.633	667.159	-180.480	929.553	648.437	-262.598	884.158	691.069	-134.352	868.023	677.112	-337.477	898.506	606.807	-136.275	881.917	590.882	-328.091	710.654	261.481	-51.857	761.368	181.304	-396.301	716.866	262.209	-93.804	768.291	186.994	-353.843	731.310	81.377	-104.888	884.360	38.449	-296.982
	78	0.77500	779.745	841.641	-252.870	777.569	825.231	-191.536	779.712	822.956	-308.966	894.353	463.761	-175.756	833.791	465.118	-292.420	676.762	143.736	-147.812	756.064	67.566	-288.569	836.507	905.410	-244.810	826.283	906.032	-145.383	846.730	904.788	-344.237	677.916	929.966	-231.344	682.605	931.077	-286.131	901.477	468.435	-121.420	851.419	465.397	-343.989	896.019	459.071	-235.478	821.384	448.539	-253.106	670.280	151.389	-110.642	765.417	65.376	-325.851	700.142	141.708	-176.879	775.898	76.065	-260.801	745.503	1346.676	-222.529	844.388	1265.640	-183.531	834.320	1269.042	-290.916	824.931	1279.084	-240.654	867.157	1109.363	-248.986	981.619	671.646	-182.200	936.027	646.433	-263.345	896.443	694.519	-135.201	874.295	676.121	-337.762	915.232	611.072	-136.736	886.540	589.603	-328.532	736.453	257.012	-50.629	762.174	181.306	-396.191	742.268	258.033	-92.391	769.298	186.999	-353.799	764.066	78.611	-104.524	884.262	38.447	-296.950
	79	0.78333	789.121	841.983	-252.674	787.298	825.996	-191.674	789.056	823.259	-309.101	910.035	466.353	-175.505	837.088	464.777	-292.401	706.536	137.037	-146.478	756.203	67.630	-288.356	846.036	905.982	-245.457	836.139	906.993	-145.996	855.934	904.971	-344.918	687.510	930.491	-230.967	691.996	931.483	-285.829	917.606	471.375	-121.261	854.454	464.698	-344.061	914.562	461.152	-234.347	824.231	448.294	-253.139	700.114	144.289	-109.216	765.456	65.365	-325.659	729.757	136.167	-175.744	775.470	76.089	-260.533	756.080	1347.232	-222.258	854.517	1265.799	-183.041	844.901	1269.557	-290.485	835.271	1279.397	-240.172	877.067	1109.651	-248.889	993.353	675.649	-183.671	942.512	644.365	-264.082	908.304	697.387	-136.246	880.482	674.971	-338.039	929.852	614.696	-137.254	891.215	588.251	-329.047	762.273	252.414	-49.394	762.956	181.315	-396.073	767.941	253.767	-91.068	770.149	186.990	-353.717	797.148	75.842	-104.323	884.171	38.420	-296.920
	80	0.79167	798.594	842.142	-252.620	797.202	826.525	-191.809	798.518	823.372	-309.231	925.253	468.622	-175.050	840.463	464.372	-292.423	736.819	130.232	-145.192	756.396	67.666	-288.134	855.668	906.368	-246.097	846.145	907.724	-146.588	865.191	905.012	-345.606	697.135	930.750	-230.560	701.386	931.658	-285.497	933.199	474.000	-120.894	857.574	463.948	-344.166	930.102	462.925	-233.138	834.639	445.624	-254.619	730.352	137.127	-107.871	765.508	65.331	-325.468	759.827	130.539	-174.625	775.642	75.985	-260.319	766.726	1347.594	-221.965	864.750	1265.613	-182.564	855.424	1269.713	-290.038	845.756	1279.475	-239.723	886.808	1109.556	-248.800	1004.891	679.137	-184.849	948.967	642.224	-264.822	919.943	699.825	-137.075	886.462	673.654	-338.254	943.114	617.646	-137.538	898.829	587.443	-329.789	787.997	247.781	-48.200	763.690	181.334	-395.947	793.898	249.397	-89.926	770.845	186.968	-353.560	830.485	73.149	-104.244	884.101	38.373	-296.890
